<svg version="1.1" xmlns="http://www.w3.org/2000/svg" viewBox="-287.7439987182617 -940.03203125 3319.807958984375 1257.472021484375"><desc>Created with Snap</desc><defs></defs><g><g><g transform="matrix(1.024,0,0,-1.024,0,0)"><path d="M309 561L156 561L156 47L309 47Q425 47 490 114Q556 182 556 302Q556 423 489 492Q422 561 309 561ZM102 23L102 561L42 561Q32 561 25 567Q19 574 19 584Q19 594 25 601Q32 608 42 608L309 608Q445 608 527 525Q610 443 610 303Q610 163 529 81Q448 0 309 0L128 0Q102 0 102 23ZM966 561L813 561L813 47L966 47Q1082 47 1147 114Q1213 182 1213 302Q1213 423 1146 492Q1079 561 966 561ZM759 23L759 561L699 561Q689 561 682 567Q676 574 676 584Q676 594 682 601Q689 608 699 608L966 608Q1102 608 1184 525Q1267 443 1267 303Q1267 163 1186 81Q1105 0 966 0L785 0Q759 0 759 23ZM1416 13L1416 561L1356 561Q1346 561 1339 567Q1333 574 1333 584Q1333 594 1339 601Q1346 608 1356 608L1439 608Q1455 608 1465 596L1716 253L1966 595Q1975 608 1991 608L2076 608Q2086 608 2092 601Q2099 594 2099 584Q2099 574 2092 567Q2086 561 2076 561L2016 561L2016 62Q2016 47 2039 47L2076 47Q2086 47 2092 40Q2099 33 2099 23Q2099 13 2092 6Q2086 0 2076 0L2039 0Q1962 0 1962 62L1962 503L1738 197Q1730 186 1716 186Q1702 186 1694 197L1470 503L1470 13Q1470 3 1462 -4Q1454 -10 1443 -10Q1432 -10 1424 -4Q1416 3 1416 13ZM2230 138L2230 69Q2297 37 2400 37Q2503 37 2555 69Q2607 102 2607 161Q2607 221 2558 250Q2509 279 2402 299Q2295 320 2241 354Q2188 388 2188 461Q2188 618 2421 618Q2545 618 2626 573Q2641 564 2641 552L2641 470Q2641 460 2633 453Q2625 447 2614 447Q2603 447 2595 453Q2587 460 2587 470L2587 539Q2518 571 2423 571Q2329 571 2285 544Q2242 517 2242 461Q2242 408 2298 382Q2336 363 2400 349Q2465 336 2492 329Q2519 322 2555 307Q2591 293 2611 275Q2631 257 2646 227Q2661 198 2661 160Q2661 82 2595 36Q2530 -10 2408 -10Q2352 -10 2287 2Q2222 15 2189 36Q2176 44 2176 56L2176 138Q2176 148 2184 154Q2192 161 2203 161Q2214 161 2222 154Q2230 148 2230 138Z" fill="#4a274f" style=""></path></g></g></g></svg>